<mxfile host="app.diagrams.net" agent="Mozilla/5.0 (Windows NT 10.0; Win64; x64) AppleWebKit/537.36 (KHTML, like Gecko) Chrome/131.0.0.0 Safari/537.36 OPR/116.0.0.0" version="26.0.16">
  <diagram name="PÃ¡gina-1" id="XXqMGGkUOOivSz21t4vk">
    <mxGraphModel dx="1632" dy="753" grid="1" gridSize="10" guides="1" tooltips="1" connect="1" arrows="1" fold="1" page="1" pageScale="1" pageWidth="827" pageHeight="1169" math="0" shadow="0">
      <root>
        <mxCell id="0" />
        <mxCell id="1" parent="0" />
        <mxCell id="mQe6aNcpIWTx0u4t9ZOu-92" value="&lt;font style=&quot;font-size: 24px;&quot;&gt;Register - Sequence Diagram&lt;/font&gt;" style="text;html=1;align=center;verticalAlign=middle;resizable=0;points=[];autosize=1;strokeColor=none;fillColor=none;" parent="1" vertex="1">
          <mxGeometry x="404.5" y="95" width="340" height="40" as="geometry" />
        </mxCell>
        <mxCell id="gqjOFkWSgh7rtiZlX3qj-55" value="User" style="shape=umlActor;verticalLabelPosition=bottom;verticalAlign=top;html=1;" parent="1" vertex="1">
          <mxGeometry x="140" y="160" width="30" height="60" as="geometry" />
        </mxCell>
        <mxCell id="gqjOFkWSgh7rtiZlX3qj-56" value="Authentication&lt;span style=&quot;background-color: transparent; color: light-dark(rgb(0, 0, 0), rgb(255, 255, 255));&quot;&gt;Manager&lt;/span&gt;" style="html=1;whiteSpace=wrap;" parent="1" vertex="1">
          <mxGeometry x="423.5" y="170" width="136" height="50" as="geometry" />
        </mxCell>
        <mxCell id="gqjOFkWSgh7rtiZlX3qj-57" value="Authentication&lt;span style=&quot;background-color: transparent; color: light-dark(rgb(0, 0, 0), rgb(255, 255, 255));&quot;&gt;Service&lt;/span&gt;" style="html=1;whiteSpace=wrap;" parent="1" vertex="1">
          <mxGeometry x="780" y="170" width="136.5" height="50" as="geometry" />
        </mxCell>
        <mxCell id="gqjOFkWSgh7rtiZlX3qj-58" value="DBMS" style="html=1;whiteSpace=wrap;" parent="1" vertex="1">
          <mxGeometry x="1300" y="170" width="136" height="50" as="geometry" />
        </mxCell>
        <mxCell id="gqjOFkWSgh7rtiZlX3qj-59" value="" style="endArrow=none;dashed=1;html=1;rounded=0;" parent="1" edge="1">
          <mxGeometry width="50" height="50" relative="1" as="geometry">
            <mxPoint x="150" y="1030" as="sourcePoint" />
            <mxPoint x="150" y="240" as="targetPoint" />
          </mxGeometry>
        </mxCell>
        <mxCell id="gqjOFkWSgh7rtiZlX3qj-60" value="" style="endArrow=none;dashed=1;html=1;rounded=0;" parent="1" edge="1">
          <mxGeometry width="50" height="50" relative="1" as="geometry">
            <mxPoint x="490" y="1030" as="sourcePoint" />
            <mxPoint x="491" y="220" as="targetPoint" />
          </mxGeometry>
        </mxCell>
        <mxCell id="gqjOFkWSgh7rtiZlX3qj-61" value="" style="endArrow=none;dashed=1;html=1;rounded=0;" parent="1" edge="1">
          <mxGeometry width="50" height="50" relative="1" as="geometry">
            <mxPoint x="850" y="1030" as="sourcePoint" />
            <mxPoint x="847" y="220" as="targetPoint" />
          </mxGeometry>
        </mxCell>
        <mxCell id="gqjOFkWSgh7rtiZlX3qj-62" value="" style="endArrow=none;dashed=1;html=1;rounded=0;" parent="1" edge="1">
          <mxGeometry width="50" height="50" relative="1" as="geometry">
            <mxPoint x="320" y="1030" as="sourcePoint" />
            <mxPoint x="319.5" y="220" as="targetPoint" />
          </mxGeometry>
        </mxCell>
        <mxCell id="gqjOFkWSgh7rtiZlX3qj-63" value="" style="endArrow=classic;html=1;rounded=0;" parent="1" edge="1">
          <mxGeometry width="50" height="50" relative="1" as="geometry">
            <mxPoint x="150" y="270" as="sourcePoint" />
            <mxPoint x="320" y="270" as="targetPoint" />
          </mxGeometry>
        </mxCell>
        <mxCell id="gqjOFkWSgh7rtiZlX3qj-64" value="Send Credentials" style="edgeLabel;html=1;align=center;verticalAlign=middle;resizable=0;points=[];" parent="gqjOFkWSgh7rtiZlX3qj-63" vertex="1" connectable="0">
          <mxGeometry x="-0.0871" y="3" relative="1" as="geometry">
            <mxPoint y="-7" as="offset" />
          </mxGeometry>
        </mxCell>
        <mxCell id="gqjOFkWSgh7rtiZlX3qj-65" value="" style="endArrow=classic;html=1;rounded=0;" parent="1" edge="1">
          <mxGeometry width="50" height="50" relative="1" as="geometry">
            <mxPoint x="320" y="310" as="sourcePoint" />
            <mxPoint x="490" y="310" as="targetPoint" />
          </mxGeometry>
        </mxCell>
        <mxCell id="gqjOFkWSgh7rtiZlX3qj-66" value="Validate locally the input" style="edgeLabel;html=1;align=center;verticalAlign=middle;resizable=0;points=[];" parent="gqjOFkWSgh7rtiZlX3qj-65" vertex="1" connectable="0">
          <mxGeometry x="-0.1224" y="-1" relative="1" as="geometry">
            <mxPoint x="3" y="-11" as="offset" />
          </mxGeometry>
        </mxCell>
        <mxCell id="gqjOFkWSgh7rtiZlX3qj-67" value="UI" style="html=1;whiteSpace=wrap;" parent="1" vertex="1">
          <mxGeometry x="250" y="170" width="136" height="50" as="geometry" />
        </mxCell>
        <mxCell id="gqjOFkWSgh7rtiZlX3qj-68" value="" style="endArrow=none;dashed=1;html=1;rounded=0;" parent="1" edge="1">
          <mxGeometry width="50" height="50" relative="1" as="geometry">
            <mxPoint x="1368" y="1030" as="sourcePoint" />
            <mxPoint x="1367.5" y="220" as="targetPoint" />
          </mxGeometry>
        </mxCell>
        <mxCell id="gqjOFkWSgh7rtiZlX3qj-69" value="DatabaseHandler" style="html=1;whiteSpace=wrap;" parent="1" vertex="1">
          <mxGeometry x="1120" y="170" width="136" height="50" as="geometry" />
        </mxCell>
        <mxCell id="gqjOFkWSgh7rtiZlX3qj-70" value="" style="endArrow=none;dashed=1;html=1;rounded=0;" parent="1" edge="1">
          <mxGeometry width="50" height="50" relative="1" as="geometry">
            <mxPoint x="1193" y="1030" as="sourcePoint" />
            <mxPoint x="1193" y="220" as="targetPoint" />
          </mxGeometry>
        </mxCell>
        <mxCell id="gqjOFkWSgh7rtiZlX3qj-71" value="" style="endArrow=classic;html=1;rounded=0;" parent="1" edge="1">
          <mxGeometry width="50" height="50" relative="1" as="geometry">
            <mxPoint x="490" y="440" as="sourcePoint" />
            <mxPoint x="670" y="440" as="targetPoint" />
          </mxGeometry>
        </mxCell>
        <mxCell id="gqjOFkWSgh7rtiZlX3qj-72" value="Connect to the server (TCP/IP)" style="edgeLabel;html=1;align=center;verticalAlign=middle;resizable=0;points=[];" parent="gqjOFkWSgh7rtiZlX3qj-71" vertex="1" connectable="0">
          <mxGeometry x="-0.0422" y="2" relative="1" as="geometry">
            <mxPoint x="3" y="-8" as="offset" />
          </mxGeometry>
        </mxCell>
        <mxCell id="gqjOFkWSgh7rtiZlX3qj-73" value="" style="endArrow=classic;html=1;rounded=0;" parent="1" edge="1">
          <mxGeometry width="50" height="50" relative="1" as="geometry">
            <mxPoint x="1200" y="530" as="sourcePoint" />
            <mxPoint x="1370" y="530" as="targetPoint" />
          </mxGeometry>
        </mxCell>
        <mxCell id="gqjOFkWSgh7rtiZlX3qj-74" value="Request data from the database" style="edgeLabel;html=1;align=center;verticalAlign=middle;resizable=0;points=[];" parent="gqjOFkWSgh7rtiZlX3qj-73" vertex="1" connectable="0">
          <mxGeometry x="0.12" y="-2" relative="1" as="geometry">
            <mxPoint x="-15" y="-12" as="offset" />
          </mxGeometry>
        </mxCell>
        <mxCell id="gqjOFkWSgh7rtiZlX3qj-75" value="" style="endArrow=classic;html=1;rounded=0;dashed=1;" parent="1" edge="1">
          <mxGeometry width="50" height="50" relative="1" as="geometry">
            <mxPoint x="1370" y="560" as="sourcePoint" />
            <mxPoint x="1190" y="560" as="targetPoint" />
          </mxGeometry>
        </mxCell>
        <mxCell id="gqjOFkWSgh7rtiZlX3qj-76" value="Return data from the database" style="edgeLabel;html=1;align=center;verticalAlign=middle;resizable=0;points=[];" parent="gqjOFkWSgh7rtiZlX3qj-75" vertex="1" connectable="0">
          <mxGeometry x="0.12" y="-2" relative="1" as="geometry">
            <mxPoint x="15" y="-8" as="offset" />
          </mxGeometry>
        </mxCell>
        <mxCell id="gqjOFkWSgh7rtiZlX3qj-77" value="" style="endArrow=classic;html=1;rounded=0;" parent="1" edge="1">
          <mxGeometry width="50" height="50" relative="1" as="geometry">
            <mxPoint x="670" y="470" as="sourcePoint" />
            <mxPoint x="850" y="470" as="targetPoint" />
          </mxGeometry>
        </mxCell>
        <mxCell id="gqjOFkWSgh7rtiZlX3qj-78" value="Send the new user Data" style="edgeLabel;html=1;align=center;verticalAlign=middle;resizable=0;points=[];" parent="gqjOFkWSgh7rtiZlX3qj-77" vertex="1" connectable="0">
          <mxGeometry x="-0.0094" relative="1" as="geometry">
            <mxPoint x="-9" y="-10" as="offset" />
          </mxGeometry>
        </mxCell>
        <mxCell id="gqjOFkWSgh7rtiZlX3qj-79" value="" style="group" parent="1" vertex="1" connectable="0">
          <mxGeometry x="79.99891156462586" y="330" width="410.00108843537413" height="90" as="geometry" />
        </mxCell>
        <mxCell id="gqjOFkWSgh7rtiZlX3qj-80" value="Alt" style="shape=umlFrame;whiteSpace=wrap;html=1;pointerEvents=0;" parent="gqjOFkWSgh7rtiZlX3qj-79" vertex="1">
          <mxGeometry x="0.0010884353741431596" width="410" height="90" as="geometry" />
        </mxCell>
        <mxCell id="gqjOFkWSgh7rtiZlX3qj-81" value="" style="endArrow=classic;html=1;rounded=0;dashed=1;" parent="gqjOFkWSgh7rtiZlX3qj-79" edge="1">
          <mxGeometry width="50" height="50" relative="1" as="geometry">
            <mxPoint x="410.00108843537413" y="29" as="sourcePoint" />
            <mxPoint x="240.00108843537413" y="29" as="targetPoint" />
          </mxGeometry>
        </mxCell>
        <mxCell id="gqjOFkWSgh7rtiZlX3qj-82" value="Invalid Input" style="edgeLabel;html=1;align=center;verticalAlign=middle;resizable=0;points=[];" parent="gqjOFkWSgh7rtiZlX3qj-81" vertex="1" connectable="0">
          <mxGeometry x="0.4612" y="2" relative="1" as="geometry">
            <mxPoint x="34" y="-12" as="offset" />
          </mxGeometry>
        </mxCell>
        <mxCell id="gqjOFkWSgh7rtiZlX3qj-83" value="" style="endArrow=classic;html=1;rounded=0;" parent="gqjOFkWSgh7rtiZlX3qj-79" edge="1">
          <mxGeometry width="50" height="50" relative="1" as="geometry">
            <mxPoint x="240.00108843537413" y="60" as="sourcePoint" />
            <mxPoint x="70.00108843537414" y="60" as="targetPoint" />
          </mxGeometry>
        </mxCell>
        <mxCell id="gqjOFkWSgh7rtiZlX3qj-84" value="Show Invalid input message" style="edgeLabel;html=1;align=center;verticalAlign=middle;resizable=0;points=[];" parent="gqjOFkWSgh7rtiZlX3qj-83" vertex="1" connectable="0">
          <mxGeometry x="-0.1224" y="-1" relative="1" as="geometry">
            <mxPoint x="-5" y="-11" as="offset" />
          </mxGeometry>
        </mxCell>
        <mxCell id="gqjOFkWSgh7rtiZlX3qj-85" value="[If input&amp;nbsp;&lt;div&gt;is invalid]&lt;/div&gt;" style="text;html=1;align=center;verticalAlign=middle;resizable=0;points=[];autosize=1;strokeColor=none;fillColor=none;" parent="gqjOFkWSgh7rtiZlX3qj-79" vertex="1">
          <mxGeometry y="30.001578947368415" width="70" height="40" as="geometry" />
        </mxCell>
        <mxCell id="gqjOFkWSgh7rtiZlX3qj-86" value="" style="endArrow=classic;html=1;rounded=0;" parent="1" edge="1">
          <mxGeometry width="50" height="50" relative="1" as="geometry">
            <mxPoint x="850" y="500" as="sourcePoint" />
            <mxPoint x="1190" y="500" as="targetPoint" />
          </mxGeometry>
        </mxCell>
        <mxCell id="gqjOFkWSgh7rtiZlX3qj-87" value="Connect to the Database" style="edgeLabel;html=1;align=center;verticalAlign=middle;resizable=0;points=[];" parent="gqjOFkWSgh7rtiZlX3qj-86" vertex="1" connectable="0">
          <mxGeometry x="-0.3455" relative="1" as="geometry">
            <mxPoint x="139" y="-10" as="offset" />
          </mxGeometry>
        </mxCell>
        <mxCell id="gqjOFkWSgh7rtiZlX3qj-101" value="ClientManager" style="html=1;whiteSpace=wrap;" parent="1" vertex="1">
          <mxGeometry x="608" y="170" width="136.5" height="50" as="geometry" />
        </mxCell>
        <mxCell id="gqjOFkWSgh7rtiZlX3qj-102" value="" style="endArrow=none;dashed=1;html=1;rounded=0;" parent="1" edge="1">
          <mxGeometry width="50" height="50" relative="1" as="geometry">
            <mxPoint x="675" y="1030" as="sourcePoint" />
            <mxPoint x="675" y="220" as="targetPoint" />
          </mxGeometry>
        </mxCell>
        <mxCell id="gqjOFkWSgh7rtiZlX3qj-103" value="SecurityModule" style="html=1;whiteSpace=wrap;" parent="1" vertex="1">
          <mxGeometry x="950" y="170" width="136" height="50" as="geometry" />
        </mxCell>
        <mxCell id="gqjOFkWSgh7rtiZlX3qj-104" value="" style="endArrow=none;dashed=1;html=1;rounded=0;" parent="1" edge="1">
          <mxGeometry width="50" height="50" relative="1" as="geometry">
            <mxPoint x="1023" y="1030" as="sourcePoint" />
            <mxPoint x="1023" y="220" as="targetPoint" />
          </mxGeometry>
        </mxCell>
        <mxCell id="gqjOFkWSgh7rtiZlX3qj-105" value="" style="endArrow=classic;html=1;rounded=0;" parent="1" edge="1">
          <mxGeometry width="50" height="50" relative="1" as="geometry">
            <mxPoint x="1190" y="594" as="sourcePoint" />
            <mxPoint x="1020" y="594" as="targetPoint" />
          </mxGeometry>
        </mxCell>
        <mxCell id="gqjOFkWSgh7rtiZlX3qj-106" value="Decipher the users information" style="edgeLabel;html=1;align=center;verticalAlign=middle;resizable=0;points=[];" parent="gqjOFkWSgh7rtiZlX3qj-105" vertex="1" connectable="0">
          <mxGeometry x="-0.1647" y="2" relative="1" as="geometry">
            <mxPoint x="-9" y="-12" as="offset" />
          </mxGeometry>
        </mxCell>
        <mxCell id="gqjOFkWSgh7rtiZlX3qj-107" value="" style="endArrow=classic;html=1;rounded=0;" parent="1" edge="1">
          <mxGeometry width="50" height="50" relative="1" as="geometry">
            <mxPoint x="1020" y="620" as="sourcePoint" />
            <mxPoint x="850" y="620" as="targetPoint" />
          </mxGeometry>
        </mxCell>
        <mxCell id="gqjOFkWSgh7rtiZlX3qj-108" value="Check if user already exists" style="edgeLabel;html=1;align=center;verticalAlign=middle;resizable=0;points=[];" parent="gqjOFkWSgh7rtiZlX3qj-107" vertex="1" connectable="0">
          <mxGeometry x="-0.0471" y="-4" relative="1" as="geometry">
            <mxPoint y="-6" as="offset" />
          </mxGeometry>
        </mxCell>
        <mxCell id="gqjOFkWSgh7rtiZlX3qj-89" value="" style="endArrow=classic;html=1;rounded=0;dashed=1;" parent="1" edge="1">
          <mxGeometry width="50" height="50" relative="1" as="geometry">
            <mxPoint x="850" y="670" as="sourcePoint" />
            <mxPoint x="320" y="670" as="targetPoint" />
          </mxGeometry>
        </mxCell>
        <mxCell id="gqjOFkWSgh7rtiZlX3qj-90" value="User already registered" style="edgeLabel;html=1;align=center;verticalAlign=middle;resizable=0;points=[];" parent="gqjOFkWSgh7rtiZlX3qj-89" vertex="1" connectable="0">
          <mxGeometry x="0.0871" y="1" relative="1" as="geometry">
            <mxPoint x="-65" y="-11" as="offset" />
          </mxGeometry>
        </mxCell>
        <mxCell id="gqjOFkWSgh7rtiZlX3qj-91" value="" style="endArrow=classic;html=1;rounded=0;" parent="1" edge="1">
          <mxGeometry width="50" height="50" relative="1" as="geometry">
            <mxPoint x="320" y="700" as="sourcePoint" />
            <mxPoint x="150" y="700" as="targetPoint" />
          </mxGeometry>
        </mxCell>
        <mxCell id="gqjOFkWSgh7rtiZlX3qj-92" value="Shows user already&amp;nbsp;&lt;div&gt;registered&lt;span style=&quot;background-color: light-dark(#ffffff, var(--ge-dark-color, #121212)); color: light-dark(rgb(0, 0, 0), rgb(255, 255, 255));&quot;&gt;&amp;nbsp;message&lt;/span&gt;&lt;/div&gt;" style="edgeLabel;html=1;align=center;verticalAlign=middle;resizable=0;points=[];" parent="gqjOFkWSgh7rtiZlX3qj-91" vertex="1" connectable="0">
          <mxGeometry x="-0.0244" y="2" relative="1" as="geometry">
            <mxPoint y="-22" as="offset" />
          </mxGeometry>
        </mxCell>
        <mxCell id="gqjOFkWSgh7rtiZlX3qj-93" value="" style="group" parent="1" vertex="1" connectable="0">
          <mxGeometry x="60" y="630" width="660" height="200" as="geometry" />
        </mxCell>
        <mxCell id="gqjOFkWSgh7rtiZlX3qj-97" value="&lt;span style=&quot;color: rgb(0, 0, 0); font-family: Helvetica; font-size: 12px; font-style: normal; font-variant-ligatures: normal; font-variant-caps: normal; font-weight: 400; letter-spacing: normal; orphans: 2; text-align: center; text-indent: 0px; text-transform: none; widows: 2; word-spacing: 0px; -webkit-text-stroke-width: 0px; white-space: nowrap; background-color: rgb(251, 251, 251); text-decoration-thickness: initial; text-decoration-style: initial; text-decoration-color: initial; float: none; display: inline !important;&quot;&gt;[If user exists&lt;/span&gt;&lt;span style=&quot;background-color: light-dark(rgb(251, 251, 251), rgb(21, 21, 21)); color: light-dark(rgb(0, 0, 0), rgb(237, 237, 237)); text-align: center; text-wrap-mode: nowrap;&quot;&gt;]&lt;/span&gt;" style="text;whiteSpace=wrap;html=1;" parent="gqjOFkWSgh7rtiZlX3qj-93" vertex="1">
          <mxGeometry x="10" y="40" width="59.99999999999999" height="60" as="geometry" />
        </mxCell>
        <mxCell id="gqjOFkWSgh7rtiZlX3qj-98" value="Alt" style="shape=umlFrame;whiteSpace=wrap;html=1;pointerEvents=0;" parent="1" vertex="1">
          <mxGeometry x="60" y="630" width="790" height="110" as="geometry" />
        </mxCell>
        <mxCell id="gqjOFkWSgh7rtiZlX3qj-111" value="" style="endArrow=classic;html=1;rounded=0;" parent="1" edge="1">
          <mxGeometry width="50" height="50" relative="1" as="geometry">
            <mxPoint x="850" y="770" as="sourcePoint" />
            <mxPoint x="1020" y="770" as="targetPoint" />
          </mxGeometry>
        </mxCell>
        <mxCell id="gqjOFkWSgh7rtiZlX3qj-112" value="Cipher new user&#39;s data" style="edgeLabel;html=1;align=center;verticalAlign=middle;resizable=0;points=[];" parent="gqjOFkWSgh7rtiZlX3qj-111" vertex="1" connectable="0">
          <mxGeometry x="0.0173" y="1" relative="1" as="geometry">
            <mxPoint x="1" y="-9" as="offset" />
          </mxGeometry>
        </mxCell>
        <mxCell id="gqjOFkWSgh7rtiZlX3qj-113" value="" style="endArrow=classic;html=1;rounded=0;" parent="1" edge="1">
          <mxGeometry width="50" height="50" relative="1" as="geometry">
            <mxPoint x="1020" y="800" as="sourcePoint" />
            <mxPoint x="1190" y="800" as="targetPoint" />
          </mxGeometry>
        </mxCell>
        <mxCell id="gqjOFkWSgh7rtiZlX3qj-115" value="Connect to the database" style="edgeLabel;html=1;align=center;verticalAlign=middle;resizable=0;points=[];" parent="gqjOFkWSgh7rtiZlX3qj-113" vertex="1" connectable="0">
          <mxGeometry x="0.3979" y="2" relative="1" as="geometry">
            <mxPoint x="-29" y="-8" as="offset" />
          </mxGeometry>
        </mxCell>
        <mxCell id="gqjOFkWSgh7rtiZlX3qj-116" value="" style="endArrow=classic;html=1;rounded=0;" parent="1" edge="1">
          <mxGeometry width="50" height="50" relative="1" as="geometry">
            <mxPoint x="1190" y="830" as="sourcePoint" />
            <mxPoint x="1370" y="830" as="targetPoint" />
          </mxGeometry>
        </mxCell>
        <mxCell id="gqjOFkWSgh7rtiZlX3qj-117" value="Add new user to the database" style="edgeLabel;html=1;align=center;verticalAlign=middle;resizable=0;points=[];" parent="gqjOFkWSgh7rtiZlX3qj-116" vertex="1" connectable="0">
          <mxGeometry x="0.1699" y="-4" relative="1" as="geometry">
            <mxPoint x="-15" y="-14" as="offset" />
          </mxGeometry>
        </mxCell>
        <mxCell id="gqjOFkWSgh7rtiZlX3qj-118" value="" style="endArrow=classic;html=1;rounded=0;dashed=1;" parent="1" edge="1">
          <mxGeometry width="50" height="50" relative="1" as="geometry">
            <mxPoint x="1370" y="860" as="sourcePoint" />
            <mxPoint x="320" y="860" as="targetPoint" />
          </mxGeometry>
        </mxCell>
        <mxCell id="gqjOFkWSgh7rtiZlX3qj-119" value="Successful user registration&amp;nbsp;" style="edgeLabel;html=1;align=center;verticalAlign=middle;resizable=0;points=[];" parent="gqjOFkWSgh7rtiZlX3qj-118" vertex="1" connectable="0">
          <mxGeometry x="0.0131" y="3" relative="1" as="geometry">
            <mxPoint x="-264" y="-13" as="offset" />
          </mxGeometry>
        </mxCell>
        <mxCell id="gqjOFkWSgh7rtiZlX3qj-123" value="" style="endArrow=classic;html=1;rounded=0;" parent="1" edge="1">
          <mxGeometry width="50" height="50" relative="1" as="geometry">
            <mxPoint x="320" y="900" as="sourcePoint" />
            <mxPoint x="150" y="900" as="targetPoint" />
          </mxGeometry>
        </mxCell>
        <mxCell id="gqjOFkWSgh7rtiZlX3qj-124" value="Show successful&lt;div&gt;registration message&lt;/div&gt;" style="edgeLabel;html=1;align=center;verticalAlign=middle;resizable=0;points=[];" parent="gqjOFkWSgh7rtiZlX3qj-123" vertex="1" connectable="0">
          <mxGeometry x="-0.0244" y="2" relative="1" as="geometry">
            <mxPoint y="-22" as="offset" />
          </mxGeometry>
        </mxCell>
      </root>
    </mxGraphModel>
  </diagram>
</mxfile>
